<?xml version="1.0" encoding="UTF-8" standalone="no"?>
<!-- Created with Inkscape (http://www.inkscape.org/) -->

<svg
   xmlns:dc="http://purl.org/dc/elements/1.1/"
   xmlns:cc="http://creativecommons.org/ns#"
   xmlns:rdf="http://www.w3.org/1999/02/22-rdf-syntax-ns#"
   xmlns:svg="http://www.w3.org/2000/svg"
   xmlns="http://www.w3.org/2000/svg"
   xmlns:sodipodi="http://sodipodi.sourceforge.net/DTD/sodipodi-0.dtd"
   xmlns:inkscape="http://www.inkscape.org/namespaces/inkscape"
   width="158.32919mm"
   height="58.157063mm"
   viewBox="0 0 158.3292 58.157063"
   version="1.1"
   id="svg8"
   inkscape:version="0.92.3 (2405546, 2018-03-11)"
   sodipodi:docname="logo.svg"
   inkscape:export-filename="/home/majackson/Dropbox/Processing/ProcessingProjects/dot_counter/ddot_counter/logo.png"
   inkscape:export-xdpi="300"
   inkscape:export-ydpi="300">
  <defs
     id="defs2">
    <mask
       maskUnits="userSpaceOnUse"
       id="mask2674">
      <g
         id="g2776"
         transform="matrix(0.74230799,0,0,0.74230799,-4976.2756,379.14323)">
        <g
           transform="translate(-444.46721,404.06103)"
           id="g2678"
           style="fill:#ffffff;stroke:none">
          <path
             style="fill:#ffffff"
             id="path2676"
             d="M 0,1960 V 0 H 1915 3830 V 1960 3920 H 1915 0 Z"
             inkscape:connector-curvature="0" />
        </g>
        <path
           style="fill:#000000;fill-opacity:1"
           id="path2680"
           d="m -444.46717,2364.0611 1,-1960.00003 H 29.532827 c 493.000003,0 507.000003,1 485.000003,42 -5,10 -7,18 -3,18 3,0 1,7 -6,15 -21,25 3,40 25,15 23,-25 35,-25 79,1 29,17 34,24 26,39 -5,9 -7,20 -4,23 10,9 -36,28 -49,21 -8,-5 -7,-2 2,9 12,15 11,17 -4,17 -12,0 -15,5 -11,16 4,10 0,18 -13,21 -11,3 -22,15 -25,27 -3,13 -18,36 -33,52 -33,35 -36,58 -11,87 11,12 15,23 9,25 -6,2 -11,14 -11,26 0,12 -15,40 -34,63 -19,22 -38,51 -41,65 -12,49.00003 -95,116.00003 -95,77.00003 0,-5 -4,-7 -10,-4 -14,9 -12,42 2,52 15,9 16,15 23,148 7,116 24,155 73,169 36,10 39,25 20,87 -13,45 -3,63 18,35 14,-19 14,-19 16,5 0,13 2,35 3,49 1,14 6,81 10,150 4,69 11,130 16,136 5,6 20,46 34,89 20,65 24,93 20,159 -2,44 -9,82 -14,84 -6,2 0,13 13,25 13,12 34,49 47,82 13,33 29,59 34,58 6,-2 11,-57 13,-130 3,-97 -1,-146 -14,-200 l -18,-72 25,-23 c 31,-29 148,-75 210,-84 41,-5 51,-2 95,28 58,40 82.99997,68 76.99997,86 -4,10 -9.99997,9 -23.99997,-4 -11,-10 -22,-14 -26,-11 -3,4 -1,7 5,7 7,0 12,4 12,10 0,5 -12,7 -27,5 -73,-13 -145,-12 -150,0 -2,7 -21,25 -42,38 -37,25 -42,39 -27,80 15,41 15,50 1,77 -8,15 -20,31 -27,33 -10,4 -9,8 2,16 19,13 90,14 90,2 0,-22 52,-64 91,-72 23,-5 43,-8 45,-7 1,2 -3,22 -9,45 -12,47 -5,69 39,116 13,14 24,29 24,32 0,3 -16,5 -35,5 -30,0 -75,-19 -95,-40 -3,-3 -12,-11 -21,-18 -15,-11 -17,-8 -21,24 -4,30 -1,37 19,45 13,5 23,13 23,19 0,5 7,10 15,10 8,0 20,10 26,23 12,23 50,54 59,49 3,-2 8,7 11,20 3,13 11,22 17,21 14,-3 24.99997,35 19.99997,68 -2,18 -9.99997,25 -32.99997,27 -16,2 -34,10 -38,18 -4,8 -15,14 -22,14 -23,0 -17,14 14,31 26,15 30,15 52,-2 13,-10 29.99997,-19 36.99997,-19 7,0 15,-6 18,-14 3,-7 25,-28 50,-45 24,-18 68,-57 97,-88 28,-31 58,-62 65,-69 6,-7 12,-24 12,-39 0,-14 7,-28 15,-32 13,-4 15,-17 11,-57 -9,-91 -15,-104 -86,-177 -31,-32 -55,-61 -52,-63 4,-5 -50,-41 -73,-50 -5,-2 -7,-6 -4,-10 13,-15 113,49 103,66 -3,5 6,6 22,2 18,-5 25,-3 20,4 -3,6 8,21 26,33 18,13 36,27 39,32 4,5 8,4 10,-2 3,-7 28,-13 59,-14 53,-2 55,-3 59,-32 9,-82 4,-119 -22,-140 -17,-13 -22,-25 -17,-35 13,-26 30,-86 30,-107 0,-12 -7,-29 -16,-37 -13,-14 -13,-16 -1,-16 16,0 30,-27 21,-41 -3,-5 0,-9 6,-9 6,0 13,6 16,14 5,12 11,13 30,4 30,-14 26,-32 -7,-36 -13,-2 -37,-8 -54,-14 -93,-33 -142,-54 -160,-68 -26,-20 -93,-56 -125,-65 -21,-7 -23,-6 -13,7 7,8 10,18 6,21 -3,4 1,7 11,7 9,0 15,4 11,10 -3,5 7,17 22,27 15,9 44,30 64,46 36,28 66,32 82,12 4,-6 10,0 13,13 4,12 10,22 14,22 15,0 20,33 8,47 -19,23 -19,45 2,81 11,17 15,32 10,32 -6,0 -10,9 -10,20 0,11 -6,23 -14,26 -20,8 -56,-26 -56,-54 0,-18 -4,-22 -18,-18 -14,5 -17,-1 -19,-29 -1,-19 3,-35 8,-35 5,0 9,9 9,20 0,11 5,20 10,20 16,0 11,-37 -6,-44 -9,-3 -27,3 -41,14 -14,11 -32,20 -39,20 -17,0 -19,-20 -1,-20 17,-1 52,-28 44,-36 -3,-3 -12,-2 -19,2 -23,15 -70,13 -64,-2 3,-8 -7,-17 -29,-24 -18,-6 -36,-17 -39,-25 -3,-8 -13,-15 -23,-15 -23,0 -48.99997,-17 -39.99997,-26 3,-4 11.99997,-2 18.99997,3 7,6 27,13 43,17 l 30,7 -30,-21 c -16,-11 -38,-20 -47,-20 -9.99997,0 -17.99997,-4 -17.99997,-10 0,-19 -42,-10 -47,10 -6,23 -28,27 -37,5 -6,-17 -28,-19 -54,-6 -9,5 -38,17 -64,26 -35,12 -56,29 -85,66 -20,27 -42,48 -48,46 -14,-5 -18,-119 -5,-168 6,-22 28,-60 48,-82 47,-53 65,-86 88,-166 10,-35 27,-69 36,-75 22,-13 23,-26 3,-26 -18,0 -18,-1 -4,-37 6,-15 13,-41 15,-57 2,-16 26,-54 56,-88 l 52,-61 9,33 8,32 21,-24 c 15,-16 19,-18 15,-6 -4,10 -2,18 3,18 5.99997,0 9.99997,7 9.99997,15 0,8 6,12 14,9 14,-5 55,42 71,81 8,19 8,19 12,2 3,-13 10,-16 21,-12 10,4 24,8 32,9 18,1 48,29 43,39 -6,11 -71,9 -78,-3 -10,-16 -22,-12 -28,11 -5,17 3,25 51,45 77,33 115,55 125,71 4,7 14,13 22,13 8,0 19,9 25,20 6,11 18,19 28,18 27,-3 103,35 97,50 -2,6 0,12 5,12 6,0 10,4 10,10 0,6 -16,8 -37,6 -36,-5 -52,-8 -162,-36 -54,-13 -63,-7 -22,15 17,8 31,22 31,30 0,8 3,14 8,13 4,-1 24,1 44,5 25,5 35,12 32,21 -3,8 1,13 8,13 7,-1 30,5 50,12 27,11 38,21 40,40 4,31 24,39 31,11 3,-11 10,-20 16,-20 16,0 13,26 -5,44 -14,15 -14,17 3,23 37,13 45,25 26,39 -17,12 -17,13 4,14 13,0 24,8 28,20 4,13 15,20 30,20 31,0 37,36 12,73 -10,15 -14,27 -9,27 6,0 12,-5 14,-12 3,-7 12,-9 22,-5 9,4 14,11 11,17 -16,25 37,6 71,-25 20,-19 39,-33 42,-30 3,3 10,-5 16,-18 11,-20 27,-27 116,-48 11,-3 15,5 15,35 1,47 -29,90 -56,83 -11,-3 -19,-2 -19,2 0,4 -16,15 -36,24 -25,13 -40,14 -54,7 -28,-15 -60,-13 -54,4 3,9 -1,13 -13,13 -14,-2 -17,4 -15,25 3,30 -13,68 -29,68 -5,0 -23,-14 -40,-31 -37,-37 -47,-30 -50,34 -2,27 -6,50 -11,53 -4,3 -8,16 -8,29 0,12 -7,25 -15,29 -8,3 -12,12 -9,21 3,8 2,15 -4,15 -7,0 -7,11 0,34 12,37 5,71 -12,61 -5,-3 -10,1 -10,10 0,8 7,18 15,21 20,8 19,24 -2,24 -9,0 -13,3 -9,7 4,4 15,8 23,8 26,0 26,22 1,29 l -23,7 23,9 c 12,5 22,16 22,25 0,8 4,15 10,15 5,0 7,7 4,15 -4,8 -14,15 -23,15 -12,0 -13,-2 -3,-8 9,-7 8,-13 -7,-26 -11,-10 -25,-15 -31,-11 -9,6 -9,10 1,16 11,7 11,9 -2,9 -18,0 -41,42 -45,80 -1,14 -9,38 -17,54 -9,16 -14,33 -11,38 7,12 -15,79 -33,100 -8,9 -13,21 -10,26 3,4 -1,28 -9,51 -10,30 -11,47 -4,56 5,6 7,15 3,19 -17,17 -3,96 17,96 11,0 3,111 -9,123 -7,7 -7,15 -1,22 7,8 1,10 -20,7 -18,-2 -32,-12 -36,-24 -14,-44 -114,-78 -114,-39 0,11 -5,21 -11,23 -17,6 2,38 27,44 39,10 48,30 25,53 -12,12 -21,28 -21,36 0,8 -7,15 -16,15 -10,0 -14,-6 -10,-15 4,-11 0,-14 -17,-11 -12,3 -25,5 -29,5 -7,1 -29,46 -42,83 -3,10 1,21 11,26 19,11 7,36 -13,28 -8,-3 -14,-1 -14,4 0,6 -7,10 -15,10 -17,0 -20,25 -5,35 6,3 10,1 10,-4 0,-17 19,-13 43,10 19,17 23,18 25,5 2,-9 7,-16 12,-16 5,0 15,-3 24,-6 11,-4 16,-1 16,10 0,21 54,21 94,1 27,-14 31,-14 38,0 5,8 18,15 28,15 19,0 36,17 27,27 -9,8 -126,25 -184,27 -43,1 -56,-3 -74,-23 -14,-15 -24,-20 -27,-13 -2,7 -24,21 -48,32 l -43.99997,20 v 55 c 0,47 3,55 19,55 27.99997,0 100.99997,-41 100.99997,-57 0,-7 9,-13 20,-13 25,0 70,21 70,32 0,5 10,8 23,6 14,-2 32,6 49,23 14,15 29,25 31,22 3,-2 8,4 11,14 3,10 20,27 38,37 l 31,19 -26,23 c -16,14 -34,20 -47,17 -29,-8 -25,6 5,17 17,7 25,17 25,34 0,14 7,32 16,40 8,9 13,20 9,25 -3,5 -1,12 5,16 5,3 10,21 10,40 0,21 6,38 16,43 14,8 13,13 -5,46 -26,46 -26,56 0,56 14,0 19,5 17,18 -3,12 -12,16 -32,14 l -29,-3 19,33 c 11,18 18,43 16,56 -4,25 -27,30 -39,8 -15,-26 -73,-24 -73,2 0,10 -3,13 -8,6 -4,-6 -18,-13 -31,-17 l -23,-6 23,25 c 33,35 101,65 217,95 95,24 106,30 147,73 l 45,46 h -286 -285 l -19,-46 c -11,-25 -24,-73 -30,-107 -11.99997,-77 -12.99997,-287 -1,-306 6,-10 4,-25 -4.99997,-43 -14,-27 -34,-38 -34,-19 0,5 -10,11 -22,14 -13,3 -33,8 -45,12 -20,6 -21,5 -14,-21 7,-28 31,-46 31,-24 0,10 3,10 15,0 8,-6 19,-9 25,-5 17,10 11,-10 -9,-34 -11,-12 -25,-19 -34,-15 -12,4 -15,0 -12,-18 1,-13 6,-31 10,-41 6,-13 3,-16 -9,-11 -12,5 -15,2 -10,-10 6,-15 -4,-21 -33,-17 -7,1 -13,-3 -13,-9 0,-5 11,-10 25,-10 23,0 24,-2 15,-20 -6,-11 -15,-18 -20,-15 -12,7 -41,-5 -35,-16 3,-4 13,-6 23,-3 15,5 15,4 1,-8 -9,-7 -21,-23 -28,-35 -15,-28 -35,-30 -26,-3 7,23 6,24 -29,10 -14,-5 -28,-5 -31,-1 -2,5 11,12 30,15 19,4 37,12 41,18 5,8 1,9 -10,5 -13,-5 -17,-3 -13,7 3,8 -5,19 -18,26 -34,18 -22,29 25,23 32,-5 40,-3 40,10 0,9 9,21 19,27 25,13 26,88 1,86 -10,-1 -14,6 -12,22 2,15 -2,22 -12,22 -9,0 -16,5 -16,10 0,6 5,10 12,10 8,0 9,3 2,10 -14,14 -46,2 -37,-13 4,-6 8,-23 9,-37 3,-21 1,-22 -7,-7 -11,19 -39,24 -39,6 0,-5 -4,-7 -10,-4 -5,3 -10,19 -10,35 0,22 -4,28 -15,24 -18,-7 -20,7 -2,25 10,11 9,12 -3,5 -26,-15 -50,-12 -50,7 0,9 5,19 12,21 24,8 -5,30 -33,26 -34,-5 -34,-5 -12,33 13,22 14,32 6,40 -6,6 -67,29 -135,49 -68,21 -213,70 -323,110 -110.000003,39 -246.000003,87 -302,106 -55,19 -121,45 -145,59 -34,20 -57,25 -111,25 h -68 z m 1626.99997,1703 c -4,-3 -10,-3 -14,0 -3,4 0,7 7,7 7,0 10,-3 7,-7 z m 155,-8 c 0,-5 -5,-11 -11,-13 -6,-2 -11,4 -11,13 0,9 5,15 11,13 6,-2 11,-8 11,-13 z m -812.99997,-98 c 16,-1 21,-6 17,-20 -3,-13 0,-17 10,-13 8,3 14,1 14,-4 0,-12 -27,-13 -34,-1 -3,5 -20,6 -38,2 -34,-7 -68,11 -68,36 0,13 62,22 71,10 3,-4 16,-9 28,-10 z m 71,8 c 0,-16 -27,-32 -37,-22 -3,4 -3,13 0,22 8,20 37,20 37,0 z m -194,-83 c -3,-5 8,-19 25,-31 24,-18 33,-20 45,-11 11,10 14,9 14,-3 0,-10 6,-13 18,-10 10,2 24,-3 31,-11 8,-9 20,-16 28,-16 8,0 13,-6 10,-12 -2,-7 -11,-12 -18,-11 -9,2 -15,-5 -15,-16 0,-15 3,-17 13,-9 17,14 68,-7 58,-23 -4,-6 2,-13 14,-16 14,-3 21,-13 21,-29 0,-28 17,-32 22,-6 3,14 6,14 17,-6 15,-28 6,-67 -9,-42 -13,20 -12,8 0,-26 14,-35 32,-19 37,33 2,20 9,43 15,50 12,15 78,18 78,3 0,-5 -4,-10 -10,-10 -5,0 -10,-7 -10,-15 0,-9 -9,-15 -24,-15 -19,0 -27,-8 -37,-37 -7,-21 -12,-47 -10,-59 1,-13 -7,-25 -23,-33 -29,-16 -49,-6 -41,20 4,10 2,25 -2,34 -7,12 -16,8 -48,-25 -38,-39 -39,-39 -53,-19 -12,18 -12,22 4,34 22,17 38,19 29,5 -12,-19 12,-10 31,11 19,21 19,22 -1,16 -16,-5 -26,3 -46,35 -15,23 -24,48 -21,56 4,12 7,10 13,-6 9,-23 24,-29 33,-13 3,5 -1,14 -9,21 -20,17 -19,31 3,23 15,-6 15,-5 -2,12 -16,17 -20,17 -30,4 -11,-16 -66,-32 -66,-20 0,4 5,12 11,18 9,9 0,24 -35,60 -75,78 -76,79 -76,91 0,7 5,12 11,12 5,0 8,-4 5,-8 z m 186,-14 c -6,-6 -15,-8 -19,-4 -4,4 -1,11 7,16 19,12 27,3 12,-12 z m 23,-77 c -3,-6 -11,-11 -17,-11 -6,0 -6,6 2,15 14,17 26,13 15,-4 z m -738,-33 c -3,-8 -6,-5 -6,6 -1,11 2,17 5,13 3,-3 4,-12 1,-19 z m 943,-98 c 0,-5 -5,-10 -11,-10 -5,0 -7,5 -4,10 3,6 8,10 11,10 2,0 4,-4 4,-10 z m -933,-82 c -3,-7 -5,-2 -5,12 0,14 2,19 5,13 2,-7 2,-19 0,-25 z m 0,-85 c -4,-3 -7,0 -7,7 0,7 3,10 7,7 3,-4 3,-10 0,-14 z m 941,-25 c -2,-5 -7,-9 -11,-9 -4,1 -19,1 -34,2 l -28,1 25,7 c 34,10 51,9 48,-1 z m -358,-8 c 0,-5 -2,-10 -4,-10 -3,0 -8,5 -11,10 -3,6 -1,10 4,10 6,0 11,-4 11,-10 z m 27,-17 c -4,-3 -7,0 -7,7 0,7 3,10 7,7 3,-4 3,-10 0,-14 z m -12,-83 c -10,-11 -20,-18 -23,-15 -7,6 18,35 31,35 5,0 2,-9 -8,-20 z m -75,-91 c 0,-14 -27,-10 -33,5 -4,10 0,12 14,9 10,-3 19,-9 19,-14 z m 627.99997,0 c -2,-6 -8,-10 -13,-10 -5,0 -11,4 -13,10 -2,6 4,11 13,11 9,0 15,-5 13,-11 z m -477.99997,-43 c 0,-3 -4,-8 -10,-11 -5,-3 -10,-1 -10,4 0,6 5,11 10,11 6,0 10,-2 10,-4 z m 100,-41 c 0,-8 -7,-15 -15,-15 -16,0 -20,12 -8,23 11,12 23,8 23,-8 z m -747.000003,-67 c -2,-5 -8,-8 -13.999997,-8 -11,0 -12,43 -2,54 8.999997,8 21.999997,-34 15.999997,-46 z m -32.999997,-4 c 0,-2 -18,-4 -41,-4 -22,0 -38,4 -35,8 5,8 76,4 76,-4 z m 107.999997,9 c -10,-2 -28,-2 -40,0 -13,2 -5,4 17,4 22,1 32,-1 23,-4 z m 1186.999973,-14 c 8,-23 1,-34 -14,-24 -13,8 -15,45 -2,45 5,0 13,-9 16,-21 z m -90,-69 c 16,-17 35,-28 42,-26 14,6 18,-10 5,-18 -14,-9 -13,-72 3,-115 19,-55 19,-61 -2,-61 -11,0 -33,23 -53,55 -19,30 -38,54 -42,55 -5,0 -8,9 -8,19 0,11 -5,23 -11,27 -6,3 -9,17 -6,30 2,14 0,27 -5,30 -12.99997,8 11,34 31,34 10,0 30,-14 46,-30 z m -414.99997,-159 c 0,-25 -26,-46 -36,-30 -4,7 -2,15 4,17 7,2 12,13 12,23 0,11 5,17 10,14 6,-3 10,-14 10,-24 z m -206,3 c 4,-10 14,-14 26,-11 24,6 38,-12 19,-24 -18,-11 -4,-23 17,-15 11,4 14,13 10,30 -8,32 2,38 30,19 19,-12 22,-21 17,-42 -3,-14 -11,-29 -16,-33 -7,-4 -7,-11 2,-21 10,-12 9,-23 -5,-54 -10,-21 -18,-44 -18,-52 -1,-8 -7,-16 -15,-19 -9,-3 -11,2 -6,17 3,11 4,25 1,30 -8,12 -62,-3 -59,-16 1,-6 -12,-13 -29,-17 -24,-5 -36,-1 -51,15 -11,11 -26,18 -34,14 -9,-3 -27,2 -40,10 -19,13 -22,19 -12,36 8,16 7,25 -7,40 -15,17 -15,19 0,25 9,4 16,17 16,34 0,26 4,29 53,38 78,14 94,14 101,-4 z m 778.99997,-51 c -7,-2 -19,-2 -25,0 -7,3 -2,5 12,5 14,0 19,-2 13,-5 z m 7,-34 c 0,-5 -7,-9 -15,-9 -15,0 -20,12 -9,23 8,8 24,-1 24,-14 z m -618.99997,-82 c 12,-3 17,-11 13,-21 -7,-17 -34,-22 -34,-6 0,6 -6,9 -12,8 -13,-3 -13,22 -1,52 5,11 7,10 10,-6 2,-12 13,-24 24,-27 z m 262,6 c 4,-3 -1,-15 -10,-26 -10,-10 -17,-21 -15,-23 1,-2 -1,-4 -5,-5 -11,0 -16,29 -9,47 6,15 28,19 39,7 z m -383,-32 c 0,-6 -4,-13 -10,-16 -5,-3 -10,1 -10,9 0,9 5,16 10,16 6,0 10,-4 10,-9 z m 60,-50 c 0,-11 -4,-23 -10,-26 -15,-9 -12,-25 6,-25 8,0 13,-4 10,-9 -5,-8 -76,-5 -84,4 -10,10 12,45 28,45 10,0 20,7 24,15 8,22 26,19 26,-4 z m 290,0 c 0,-6 -4,-13 -10,-16 -5,-3 -10,1 -10,9 0,9 5,16 10,16 6,0 10,-4 10,-9 z m -390,-61 c -20,-13 -33,-13 -25,0 3,6 14,10 23,10 15,0 15,-2 2,-10 z m 108,-111 c -22,-14 -28,-10 -28,20 0,20 6,31 18,33 21,4 30,-41 10,-53 z m -114,-41 c -5,-8 -1,-9 12,-4 14,5 16,4 7,-5 -6,-6 -16,-8 -22,-5 -14,9 -14,26 0,26 5,0 7,-5 3,-12 z m 56,-8 c 0,-5 -5,-10 -11,-10 -5,0 -7,5 -4,10 3,6 8,10 11,10 2,0 4,-4 4,-10 z m 35,-30 c 3,-5 4,-10 1,-10 -3,0 -8,5 -11,10 -3,6 -4,10 -1,10 3,0 8,-4 11,-10 z m -112,-77 c 4,-3 -1,-12 -11,-19 -15,-12 -15,-15 -2,-24 11,-8 6,-10 -24,-6 -57,6 -67,22 -25,40 38,17 53,19 62,9 z m -144,-34 c -18,-11 -39,-11 -39,0 0,5 12,9 26,9 18,0 22,-3 13,-9 z m 163,-110 c 16,-17 15,-19 -8,-34 -22,-14 -25,-14 -30,0 -3,8 -12,15 -20,15 -11,0 -10,4 4,18 21,23 33,23 54,1 z m -89,-14 c -17,-23 -33,-32 -33,-19 0,5 41,43 48,44 2,0 -5,-11 -15,-25 z m 97,-75 c 0,-5 -5,-10 -11,-10 -5,0 -7,5 -4,10 3,6 8,10 11,10 2,0 4,-4 4,-10 z m 1019.99997,-76 c 0,-13 -4,-24 -10,-24 -5,0 -10,14 -10,31 0,17 4,28 10,24 6,-3 10,-17 10,-31 z m 77,-141 c -4,-3 -7,0 -7,7 0,7 3,10 7,7 3,-4 3,-10 0,-14 z m -97,-54 c 0,-5 -7,-9 -15,-9 -8,0 -15,7 -15,15 0,9 6,12 15,9 8,-4 15,-10 15,-15 z m -298,-81 c -7,-7 -12,-8 -12,-2 0,6 3,14 7,17 3,4 9,5 12,2 2,-3 -1,-11 -7,-17 z m -45,-25 c -4,-3 -10,-3 -14,0 -3,4 0,7 7,7 7,0 10,-3 7,-7 z m -1109.999973,-270 c -4,-3 -10,-3 -14,0 -3,4 0,7 7,7 7,0 10,-3 7,-7 z m 9,-190 c -10,-10 -19,5 -10,18 6,11 8,11 12,0 2,-7 1,-15 -2,-18 z m 31,-45 c -3,-7 -5,-2 -5,12 0,14 2,19 5,13 2,-7 2,-19 0,-25 z m -16,-47 c -8,-5 -9,-20 -3,-47 l 9,-39 10,45 c 11,45 11,45 12,-32 l 1,-76 -31,-11.00003 c -43,-15 -45,-14 -18,10.00003 l 24,20 -23,-11 c -32,-16.00003 -49,-8 -28,12 9,9 16,28 16,42 0,14 4,26 8,26 11,0 2,61 -11,78 -7,9 -5,17 9,27 17,12 20,11 28,-12 6,-17 5,-28 -3,-32 z m -443.999997,-103 c -3,-8 -6,-5 -6,6 -1,11 2,17 5,13 3,-3 4,-12 1,-19 z m 270,-105.00003 c -4,-3 -10,-3 -14,0 -3,4 0,7 7,7 7,0 10,-3 7,-7 z m -260,-50 c -4,-3 -7,0 -7,7 0,7 3,10 7,7 3,-4 3,-10 0,-14 z m 243,12 c 0,-2 -10,-9 -22,-15 -22,-11 -22,-10 -4,4 21,17 26,19 26,11 z m -230,-94 c 0,-10 -7,-24 -15,-31 -12,-10 -15,-9 -15,8 0,29 11,53 21,46 5,-3 9,-13 9,-23 z m 930,-255 c -7,-7 -13,-7 -20,0 -6,6 -3,10 10,10 13,0 16,-4 10,-10 z"
           inkscape:connector-curvature="0" />
        <path
           style="fill:#000000;fill-opacity:1"
           id="path2682"
           d="m 555.53283,2864.0611 c 0,-5 5,-10 11,-10 5,0 7,5 4,10 -3,6 -8,10 -11,10 -2,0 -4,-4 -4,-10 z"
           inkscape:connector-curvature="0" />
        <path
           style="fill:#000000;fill-opacity:1"
           id="path2684"
           d="m 445.53283,2853.0611 c 0,-5 5,-7 10,-4 6,3 10,8 10,11 0,2 -4,4 -10,4 -5,0 -10,-5 -10,-11 z"
           inkscape:connector-curvature="0" />
        <path
           style="fill:#000000;fill-opacity:1"
           id="path2686"
           d="m 317.53283,2842.0611 c 6,-18 28,-21 28,-4 0,9 -7,16 -16,16 -9,0 -14,-5 -12,-12 z"
           inkscape:connector-curvature="0" />
        <path
           style="fill:#000000;fill-opacity:1"
           id="path2688"
           d="m 522.53283,2827.0611 c -12,-12 -7,-22 8,-17 8,4 15,10 15,15 0,11 -14,12 -23,2 z"
           inkscape:connector-curvature="0" />
        <path
           style="fill:#000000;fill-opacity:1"
           id="path2690"
           d="m 358.53283,2807.0611 c -22,-8 -14,-26 8,-20 19,5 19,4 6,-11 -14,-16 -12,-17 24,-20 21,-1 39,1 39,6 0,16 -13,22 -25,12 -9,-8 -14,-4 -19,15 -6,25 -11,28 -33,18 z"
           inkscape:connector-curvature="0" />
        <path
           style="fill:#000000;fill-opacity:1"
           id="path2692"
           d="m 452.53283,2807.0611 c -14,-13 -6,-25 13,-20 11,3 23,1 26,-4 7,-12 34,-12 34,0 0,5 -14,14 -31,20 -38,13 -34,13 -42,4 z"
           inkscape:connector-curvature="0" />
        <path
           style="fill:#000000;fill-opacity:1"
           id="path2694"
           d="m 405.53283,2694.0611 c 0,-7 3,-10 7,-7 3,4 3,10 0,14 -4,3 -7,0 -7,-7 z"
           inkscape:connector-curvature="0" />
        <path
           style="fill:#000000;fill-opacity:1"
           id="path2696"
           d="m 1012.5328,4302.0611 c -9,-31 -2,-33 11,-3 6,14 8,25 3,25 -5,0 -11,-10 -14,-22 z"
           inkscape:connector-curvature="0" />
        <path
           style="fill:#000000;fill-opacity:1"
           id="path2698"
           d="m 2115.5328,4314.0611 c 0,-5 5,-10 11,-10 5,0 7,5 4,10 -3,6 -8,10 -11,10 -2,0 -4,-4 -4,-10 z"
           inkscape:connector-curvature="0" />
        <path
           style="fill:#000000;fill-opacity:1"
           id="path2700"
           d="m 2308.5328,4313.0611 c 27,-16 21,-30 -9,-19 -33,13 -33,13 -27,-10 4,-14 14,-20 34,-20 16,0 29,6 30,13 0,6 5,1 11,-13 18,-42 19,-60 3,-60 -8,0 -15,-4 -15,-10 0,-5 4,-10 9,-10 11,0 3,-39 -12,-58 -5,-7 -7,-15 -3,-19 3,-3 6,-1 6,6 0,7 5,9 11,5 6,-3 15,0 20,7 6,11 12,9 29,-9 11,-12 26,-22 32,-22 6,0 4,-10 -5,-24 -15,-22 -14,-24 8,-34 25,-12 53,-52 36,-52 -5,0 -13,5 -16,10 -10,16 -25,12 -25,-7 0,-10 14,-30 32,-45 l 33,-27 -32,-1 c -17,0 -35,-4 -38,-10 -3,-5 1,-10 10,-10 13,0 15,-5 9,-17 -4,-10 -7,-30 -6,-45 1,-28 -11,-37 -23,-18 -10,16 -35,12 -35,-6 0,-9 11,-30 25,-48 28,-35 25,-31 84,-84 30,-27 39,-42 31,-47 -9,-6 -9,-10 1,-16 11,-7 9,-10 -8,-15 -17,-5 -20,-9 -10,-18 7,-7 20,-15 30,-19 9,-3 17,-13 17,-21 0,-10 6,-13 18,-10 12,4 14,3 4,-4 -7,-5 -25,-7 -40,-5 l -27,3 25,-11 c 14,-7 30,-11 37,-10 21,3 23,-17 3,-22 -11,-3 -20,-1 -20,4 0,5 -14,9 -32,9 -44,0 -92,-45 -77,-73 8,-13 8,-22 0,-30 -6,-6 -11,-7 -11,-3 0,5 -9,-2 -19,-15 -14,-18 -17,-29 -10,-48 7,-17 6,-27 -3,-33 -7,-4 -10,-8 -5,-8 4,0 0,-11 -9,-25 -13,-20 -14,-28 -4,-40 7,-8 8,-20 3,-27 -12,-19 -11,-58 2,-58 5,0 0,-8 -13,-18 -29,-23 -68,-93 -42,-77 24,15 7,-24 -20,-47 -29,-24 -30,-26 -16,-53 8,-15 12,-33 9,-41 -3,-8 6,-16 24,-20 39,-10 71,-49 65,-80 -3,-18 0,-24 13,-24 15,0 15,-3 5,-15 -7,-9 -9,-19 -5,-23 4,-4 10,-1 12,6 6,17 23,15 23,-3 0,-9 7,-18 15,-21 17,-7 20,-34 4,-34 -7,0 -9,-9 -6,-22 4,-12 1,-28 -5,-35 -8,-10 -7,-13 5,-13 8,0 20,7 27,15 9,10 9,15 1,15 -6,0 -11,7 -11,15 0,8 5,15 10,15 6,0 10,-5 10,-11 0,-7 12,-8 33,-4 l 32,7 -47,-44 c -27,-25 -48,-48 -48,-51 0,-4 12,-7 28,-7 l 27,-1 -27,-22 c -16,-13 -28,-28 -28,-34 0,-6 -6,-13 -12,-15 -8,-3 -2,-14 16,-31 23,-22 32,-25 43,-15 13,10 14,8 11,-12 -2,-17 2,-25 12,-25 8,0 18,-4 22,-10 4,-5 24,-8 45,-6 30,2 35,0 26,-11 -5,-7 -15,-52 -22,-100 -12,-93 -32,-153 -53,-161 -10,-4 -10,-6 0,-6 21,-2 13,-19 -13,-25 -14,-4 -25,-11 -25,-16 0,-19 36,-26 77,-16 34,9 40,14 32,27 -14,26 12,43 37,24 16,-13 17,-16 4,-25 -10,-7 -12,-12 -4,-17 23,-17 22,-51 -2,-72 -25,-22 -33,-48 -11,-35 6,4 3,-2 -7,-14 -11,-12 -25,-22 -33,-22 -8,0 -11,-5 -8,-10 3,-6 0,-13 -9,-16 -8,-3 -13,-11 -10,-18 2,-6 -16,-28 -41,-49 -25,-21 -45,-42 -45,-47 0,-5 15,-13 33,-18 l 32,-9 -32,-17 c -35,-18 -42,-34 -18,-41 51,-16 51,-17 28,-26 -13,-4 -23,-11 -23,-13 0,-14 62,-36 85,-30 19,5 25,2 25,-10 0,-33 148,-83 165,-56 11,18 -15,31 -50,25 -29,-6 -29,-5 -10,9 11,9 25,20 32,26 7,5 32,10 57,10 46,0 63,11 49,32 -4,7 -9,29 -10,48 -2,19 -4,55 -6,80 -4,51 6,92 40,166 25,54 29,94 38,379 6,183 5,174 15,180 4,3 3,26 -4,51 l -12,46 39,39 c 38,37 67,50 67,29 0,-5 7,-10 15,-10 12,0 15,8 12,33 -5,40 -18,66 -57,109 -39,42 -38,82 2,86 18,2 31,-4 41,-18 20,-29 48,-22 66,14 l 14,29 45,-48 c 44,-48 44,-48 40,-109 -3,-37 -16,-84 -32,-117 -42,-89 -34,-140 14,-90 19,19 30,44 35,77 8,59 29,104 38,81 3,-8 9,-64 12,-123 6,-93 11,-114 31,-141 14,-18 27,-45 30,-60 6,-30 39,-81 47,-73 3,3 -7,30 -22,61 -28,59 -51,185 -51,282 0,56 0,57 40,77 39,20 40,22 40,70 0,28 -4,50 -9,50 -5,0 -27,-7 -50,-15 -48,-17 -51,-13 -13,20 26,24 26,24 5,25 -22,0 -23,4 -23,83 0,211 -12,378 -36,502 -22,111 -30,133 -55,159 -16,16 -29,37 -29,46 0,20 -27,77 -40,85 -5,3 -13,-2 -18,-11 -8,-14 -20,-16 -72,-11 -105,11 -97,27 16,34 43,2 85,8 95,14 10,5 27,9 38,9 12,0 21,5 21,10 0,6 -15,8 -37,5 -21,-3 -61,-7 -88,-8 -28,-2 -56,-6 -63,-11 -16,-10 -72,3 -78,17 -2,7 -5,27 -7,45 -2,17 -7,35 -10,39 -17,16 -3,22 41,16 56,-7 49,7 -11,22 -39,10 -42,13 -42,45 0,27 5,36 20,38 43,8 95,79 108,149 6,33 -3,61 -38,120 l -20,33 h -93 -94 l 39,-47 c 86,-107 113,-155 112,-201 0,-23 -2,-21 -13,13 -13,41 -36,76 -116,177 l -45,57 h -245 c -171,0 -240,-3 -227,-10 z m 94,-76 c -4,-3 -10,-3 -14,0 -3,4 0,7 7,7 7,0 10,-3 7,-7 z m -2,-33 c 3,-5 -1,-10 -10,-10 -9,0 -13,5 -10,10 3,6 8,10 10,10 2,0 7,-4 10,-10 z m 22,-77 c -4,-3 -10,-3 -14,0 -3,4 0,7 7,7 7,0 10,-3 7,-7 z m 593,-403 c 0,-5 -4,-10 -9,-10 -6,0 -13,5 -16,10 -3,6 1,10 9,10 9,0 16,-4 16,-10 z m 85,0 c 11,-5 14,-9 8,-9 -16,-1 -17,-31 -2,-31 6,0 8,-9 4,-21 -5,-14 -2,-25 6,-30 10,-6 3,-9 -20,-9 -27,0 -31,3 -22,13 10,13 8,67 -4,87 -7,12 2,12 30,0 z m -95,-194 c 0,-8 -15,-17 -35,-20 -21,-4 -35,-13 -35,-21 0,-21 23,-19 53,5 14,11 30,20 36,20 6,0 11,7 11,15 0,10 10,15 28,15 24,-1 25,-2 10,-14 -24,-18 -23,-26 3,-26 12,0 23,8 26,20 7,25 63,29 63,5 0,-8 -7,-15 -16,-15 -10,0 -14,-6 -10,-15 3,-8 0,-15 -7,-15 -20,0 -190,-20 -214,-26 -27,-5 -30,-26 -8,-44 12,-10 13,-16 5,-24 -8,-8 -16,-4 -30,14 -13,17 -15,27 -8,32 7,3 -1,8 -17,10 -23,2 -28,8 -31,35 -4,35 6,42 70,49 21,2 41,6 44,9 12,11 62,4 62,-9 z m -40,-316 c 12,-6 18,-20 18,-39 -1,-16 10,-43 25,-63 24,-31 25,-38 16,-72 -6,-21 -8,-44 -5,-52 3,-8 1,-14 -4,-14 -6,0 -10,-7 -10,-15 0,-8 -14,-22 -32,-31 -30,-15 -32,-15 -45,2 -8,11 -16,29 -19,41 -7,26 24,113 46,130 13,10 13,12 -2,18 -10,4 -24,-1 -37,-14 -12,-12 -25,-21 -31,-21 -13,0 -37,38 -45,71 -6,23 -2,29 37,48 48,24 61,25 88,11 z m -645,-250 c 3,-5 1,-10 -4,-10 -6,0 -11,5 -11,10 0,6 2,10 4,10 3,0 8,-4 11,-10 z m 12,-52 c -3,-8 -6,-5 -6,6 -1,11 2,17 5,13 3,-3 4,-12 1,-19 z m 199,-193 c 6,-15 -17,-45 -35,-45 -20,0 -23,22 -5,40 23,23 33,24 40,5 z m 131,-581 c -3,-3 -12,-4 -19,-1 -8,3 -5,6 6,6 11,1 17,-2 13,-5 z m 80,-471 c -4,-3 -10,-3 -14,0 -3,4 0,7 7,7 7,0 10,-3 7,-7 z"
           inkscape:connector-curvature="0" />
        <path
           style="fill:#000000;fill-opacity:1"
           id="path2702"
           d="m 2988.5328,2987.0611 c 4,-3 10,-3 14,0 3,4 0,7 -7,7 -7,0 -10,-3 -7,-7 z"
           inkscape:connector-curvature="0" />
        <path
           style="fill:#000000;fill-opacity:1"
           id="path2704"
           d="m 1270.5328,4125.0611 c -3,-5 -1,-12 5,-16 5,-3 10,1 10,9 0,18 -6,21 -15,7 z"
           inkscape:connector-curvature="0" />
        <path
           style="fill:#000000;fill-opacity:1"
           id="path2706"
           d="m 3047.5328,4009.0611 c -20,-43 -13,-50 18,-20 29,28 31,45 6,45 -7,0 -18,-11 -24,-25 z"
           inkscape:connector-curvature="0" />
        <path
           style="fill:#000000;fill-opacity:1"
           id="path2708"
           d="m 3145.5328,3964.0611 c -12,-8 -9,-10 13,-10 16,0 26,4 22,10 -8,12 -16,12 -35,0 z"
           inkscape:connector-curvature="0" />
        <path
           style="fill:#000000;fill-opacity:1"
           id="path2710"
           d="m 674.53283,3954.0611 c -16,-10 -12,-15 19,-24 16,-5 22,-3 22,7 0,19 -23,28 -41,17 z"
           inkscape:connector-curvature="0" />
        <path
           style="fill:#000000;fill-opacity:1"
           id="path2712"
           d="m 3025.5328,3943.0611 c 0,-5 5,-7 10,-4 6,3 10,8 10,11 0,2 -4,4 -10,4 -5,0 -10,-5 -10,-11 z"
           inkscape:connector-curvature="0" />
        <path
           style="fill:#000000;fill-opacity:1"
           id="path2714"
           d="m 2120.5328,3934.0611 c -8,-12 20,-24 35,-15 6,3 8,11 5,16 -8,12 -32,12 -40,-1 z"
           inkscape:connector-curvature="0" />
        <path
           style="fill:#000000;fill-opacity:1"
           id="path2716"
           d="m 2154.5328,3907.0611 c -10,-2 -20,-12 -23,-21 -3,-9 -8,-22 -11,-28 -4,-7 3,-10 17,-8 26,5 83,-40 73,-56 -3,-6 -2,-10 3,-10 19,0 21,14 6,38 -8,13 -14,26 -11,28 9,9 37,-9 38,-25 0,-10 2,-11 6,-3 2,6 13,12 23,12 10,0 22,5 25,10 4,6 -5,10 -20,10 -17,0 -29,8 -37,25 -12,26 -28,33 -28,13 -1,-8 -6,-6 -14,5 -13,17 -18,18 -47,10 z"
           inkscape:connector-curvature="0" />
        <path
           style="fill:#000000;fill-opacity:1"
           id="path2718"
           d="m 2283.5328,3889.0611 c 19,-27 49,-33 49,-10 0,8 -1,15 -1,15 -1,0 -16,4 -33,9 l -33,10 z"
           inkscape:connector-curvature="0" />
        <path
           style="fill:#000000;fill-opacity:1"
           id="path2720"
           d="m 795.53283,3868.0611 c 0,-9 5,-14 12,-12 18,6 21,28 4,28 -9,0 -16,-7 -16,-16 z"
           inkscape:connector-curvature="0" />
        <path
           style="fill:#000000;fill-opacity:1"
           id="path2722"
           d="m 2405.5328,3873.0611 c 0,-5 5,-7 10,-4 6,3 10,8 10,11 0,2 -4,4 -10,4 -5,0 -10,-5 -10,-11 z"
           inkscape:connector-curvature="0" />
        <path
           style="fill:#000000;fill-opacity:1"
           id="path2724"
           d="m 735.53283,3864.0611 c 0,-5 5,-10 10,-10 6,0 10,5 10,10 0,6 -4,10 -10,10 -5,0 -10,-4 -10,-10 z"
           inkscape:connector-curvature="0" />
        <path
           style="fill:#000000;fill-opacity:1"
           id="path2726"
           d="m 2035.5328,3779.0611 c 0,-8 5,-15 10,-15 6,0 10,7 10,15 0,8 -4,15 -10,15 -5,0 -10,-7 -10,-15 z"
           inkscape:connector-curvature="0" />
        <path
           style="fill:#000000;fill-opacity:1"
           id="path2728"
           d="m 2485.5328,3549.0611 c 0,-15 4,-24 10,-20 6,3 10,12 10,20 0,8 -4,17 -10,20 -6,4 -10,-5 -10,-20 z"
           inkscape:connector-curvature="0" />
        <path
           style="fill:#000000;fill-opacity:1"
           id="path2730"
           d="m 1800.5328,3534.0611 c 3,-5 10,-10 16,-10 5,0 9,5 9,10 0,6 -7,10 -16,10 -8,0 -12,-4 -9,-10 z"
           inkscape:connector-curvature="0" />
        <path
           style="fill:#000000;fill-opacity:1"
           id="path2732"
           d="m 3371.5328,3227.0611 c -12,-62 -11,-136 2,-140 9,-4 12,17 12,81 0,88 -4,107 -14,59 z"
           inkscape:connector-curvature="0" />
        <path
           style="fill:#000000;fill-opacity:1"
           id="path2734"
           d="m 1591.5328,2983.0611 c 3,-5 -2,-9 -10,-9 -8,0 -21,-10 -27,-22 -7,-13 -16,-26 -22,-29 -15,-11 -11,-61 7,-74 9,-7 16,-22 16,-34 0,-11 4,-21 10,-21 6,0 6,-9 0,-26 -13,-33 -13,-34 4,-34 16,0 29,-41 20,-64 -4,-11 -1,-16 10,-16 24,0 19,-11 -24,-55 -32,-31 -40,-47 -40,-75 0,-85 25,-106 70,-60 17,17 30,35 30,40 0,6 7,10 15,10 8,0 15,3 16,8 0,4 2,17 5,30 3,16 -1,22 -13,22 -16,0 -16,1 0,17 13,13 20,14 29,5 19,-19 48,-15 48,8 0,11 7,20 16,20 8,0 12,5 9,10 -3,6 0,10 8,10 18,0 47,32 47,53 0,10 -8,17 -19,17 -26,0 -37,20 -20,32 10,7 -1,8 -33,4 -42,-5 -49,-3 -84,30 -32,29 -38,40 -36,67 2,18 7,35 10,38 11,10 107,-6 105,-17 -2,-10 84,-11 94,0 3,2 6,20 6,38 2,28 -1,32 -18,29 -73,-13 -114,-9 -137,12 -24,23 -103,53 -92,36 z m 88,-360 c -7,-11 -34,-12 -34,-1 0,14 11,21 26,15 8,-3 11,-9 8,-14 z"
           inkscape:connector-curvature="0" />
        <path
           style="fill:#000000;fill-opacity:1"
           id="path2736"
           d="m 2295.5328,2499.0611 c 0,-14 9,-30 20,-37 11,-7 20,-18 20,-25 0,-7 7,-13 16,-13 13,0 14,-3 5,-14 -8,-10 -8,-21 -1,-40 9,-26 8,-27 -12,-20 -13,3 -34,14 -48,24 -14,9 -38,20 -54,24 l -28,7 31,-38 c 34,-41 44,-103 16,-103 -8,0 -15,-4 -15,-9 0,-12 27,-22 44,-15 7,3 22,21 32,41 11,19 29,39 42,44 28,11 40,38 21,49 -11,7 -9,13 6,32 11,13 25,26 30,31 7,4 6,10 -1,15 -6,4 -13,15 -17,25 -4,11 -17,17 -37,17 -32,0 -41,16 -12,23 9,3 0,5 -20,6 -34,1 -38,-2 -38,-24 z"
           inkscape:connector-curvature="0" />
        <path
           style="fill:#000000;fill-opacity:1"
           id="path2738"
           d="m 3091.5328,2505.0611 c -9,-14 34,-66 59,-73 31,-8 38,3 19,30 -16,24 -72,54 -78,43 z"
           inkscape:connector-curvature="0" />
        <path
           style="fill:#000000;fill-opacity:1"
           id="path2740"
           d="m 1585.5328,2394.0611 c 0,-7 3,-10 7,-7 3,4 3,10 0,14 -4,3 -7,0 -7,-7 z"
           inkscape:connector-curvature="0" />
        <path
           style="fill:#000000;fill-opacity:1"
           id="path2742"
           d="m 1538.5328,2387.0611 c 4,-3 10,-3 14,0 3,4 0,7 -7,7 -7,0 -10,-3 -7,-7 z"
           inkscape:connector-curvature="0" />
        <path
           style="fill:#000000;fill-opacity:1"
           id="path2744"
           d="m 2008.5328,2373.0611 c -25,-9 -32,-28 -35,-86 -2,-51 15,-73 53,-73 27,0 28,2 18,27 -5,15 -9,51 -8,80 1,29 1,55 -2,57 -2,2 -14,0 -26,-5 z"
           inkscape:connector-curvature="0" />
        <path
           style="fill:#000000;fill-opacity:1"
           id="path2746"
           d="m 3185.5328,2374.0611 c 0,-7 3,-10 7,-7 3,4 3,10 0,14 -4,3 -7,0 -7,-7 z"
           inkscape:connector-curvature="0" />
        <path
           style="fill:#000000;fill-opacity:1"
           id="path2748"
           d="m 2359.5328,2219.0611 c -33,-30 -36,-35 -18,-35 22,0 57,31 60,55 3,20 1,20 -42,-20 z"
           inkscape:connector-curvature="0" />
        <path
           style="fill:#000000;fill-opacity:1"
           id="path2750"
           d="m 782.53283,2143.0611 c 12,-12 25,-20 28,-17 3,3 -7,13 -22,23 l -28,17 z"
           inkscape:connector-curvature="0" />
        <path
           style="fill:#000000;fill-opacity:1"
           id="path2752"
           d="m 3357.5328,2143.0611 c 2,-7 10,-15 17,-17 8,-3 12,1 9,9 -2,7 -10,15 -17,17 -8,3 -12,-1 -9,-9 z"
           inkscape:connector-curvature="0" />
        <path
           style="fill:#000000;fill-opacity:1"
           id="path2754"
           d="m 1025.5328,1995.0611 c 0,-5 5,-13 10,-16 6,-3 10,-2 10,4 0,5 -4,13 -10,16 -5,3 -10,2 -10,-4 z"
           inkscape:connector-curvature="0" />
        <path
           style="fill:#000000;fill-opacity:1"
           id="path2756"
           d="m 2465.5328,1749.0611 c -15,-8 -19,-14 -10,-15 28,0 60,12 54,21 -7,12 -14,11 -44,-6 z"
           inkscape:connector-curvature="0" />
        <path
           style="fill:#000000;fill-opacity:1"
           id="path2758"
           d="m 1213.5328,1647.0611 c 7,-3 16,-2 19,1 4,3 -2,6 -13,5 -11,0 -14,-3 -6,-6 z"
           inkscape:connector-curvature="0" />
        <path
           style="fill:#000000;fill-opacity:1"
           id="path2760"
           d="m 2473.5328,1617.0611 c 7,-3 16,-2 19,1 4,3 -2,6 -13,5 -11,0 -14,-3 -6,-6 z"
           inkscape:connector-curvature="0" />
        <path
           style="fill:#000000;fill-opacity:1"
           id="path2762"
           d="m 2832.5328,1564.0611 c 10,-11 21,-20 26,-20 4,0 3,9 -3,20 -6,11 -17,20 -25,20 -12,0 -12,-4 2,-20 z"
           inkscape:connector-curvature="0" />
        <path
           style="fill:#000000;fill-opacity:1"
           id="path2764"
           d="m 2888.5328,1507.0611 c 4,-3 10,-3 14,0 3,4 0,7 -7,7 -7,0 -10,-3 -7,-7 z"
           inkscape:connector-curvature="0" />
        <path
           style="fill:#000000;fill-opacity:1"
           id="path2766"
           d="m 3140.5328,1444.0611 c 3,-5 8,-10 11,-10 3,0 2,5 -1,10 -3,6 -8,10 -11,10 -3,0 -2,-4 1,-10 z"
           inkscape:connector-curvature="0" />
        <path
           style="fill:#000000;fill-opacity:1"
           id="path2768"
           d="m 3147.5328,1413.0611 c 2,-7 10,-15 17,-17 8,-3 12,1 9,9 -2,7 -10,15 -17,17 -8,3 -12,-1 -9,-9 z"
           inkscape:connector-curvature="0" />
        <path
           style="fill:#000000;fill-opacity:1"
           id="path2770"
           d="m 371.53283,1389.0611 c -20,-30 -21,-41 -1,-25 23,19 50,-12 35,-41 -15,-27 -4,-38 14,-13 19,25 27,54 14,54 -6,0 -7,7 -4,16 5,14 4,15 -9,4 -9,-7 -19,-9 -23,-5 -4,4 -1,10 6,12 16,6 15,23 -2,23 -7,0 -21,-11 -30,-25 z"
           inkscape:connector-curvature="0" />
        <path
           style="fill:#000000;fill-opacity:1"
           id="path2772"
           d="m 1366.5328,1268.0611 c 0,-11 3,-14 6,-6 3,7 2,16 -1,19 -3,4 -6,-2 -5,-13 z"
           inkscape:connector-curvature="0" />
        <path
           style="fill:#000000;fill-opacity:1"
           id="path2774"
           d="m 1313.5328,1258.0611 c -6,-5 -32,-12 -55,-13 -14,-1 -53,-40 -53,-53 0,-5 8,-4 19,1 10,6 21,8 24,5 9,-9 47,15 47,30 0,7 10,18 23,24 12,6 17,11 11,11 -6,1 -13,-2 -16,-5 z"
           inkscape:connector-curvature="0" />
      </g>
    </mask>
    <clipPath
       clipPathUnits="userSpaceOnUse"
       id="clipPath2965">
      <circle
         style="fill:#0e232e;fill-opacity:1;stroke:#19aeff;stroke-width:5.17923212;stroke-miterlimit:4;stroke-dasharray:none;stroke-dashoffset:1.70834637;stroke-opacity:1"
         id="circle2967"
         cx="-3868.0635"
         cy="2151.929"
         r="1481.1483" />
    </clipPath>
  </defs>
  <sodipodi:namedview
     id="base"
     pagecolor="#ffffff"
     bordercolor="#666666"
     borderopacity="1.0"
     inkscape:pageopacity="1"
     inkscape:pageshadow="2"
     inkscape:zoom="0.9899495"
     inkscape:cx="270.21519"
     inkscape:cy="184.50333"
     inkscape:document-units="mm"
     inkscape:current-layer="layer1"
     showgrid="false"
     showguides="false"
     fit-margin-top="0"
     fit-margin-left="0"
     fit-margin-right="0"
     fit-margin-bottom="0"
     inkscape:window-width="1920"
     inkscape:window-height="1004"
     inkscape:window-x="0"
     inkscape:window-y="289"
     inkscape:window-maximized="1" />
  <metadata
     id="metadata5">
    <rdf:RDF>
      <cc:Work
         rdf:about="">
        <dc:format>image/svg+xml</dc:format>
        <dc:type
           rdf:resource="http://purl.org/dc/dcmitype/StillImage" />
        <dc:title />
      </cc:Work>
    </rdf:RDF>
  </metadata>
  <g
     inkscape:label="Layer 1"
     inkscape:groupmode="layer"
     id="layer1"
     transform="translate(-136.20121,57.550938)">
    <circle
       style="fill:#19aeff;fill-opacity:1;stroke:#005c94;stroke-width:2.88298011;stroke-miterlimit:4;stroke-dasharray:none;stroke-dashoffset:1.70834637;stroke-opacity:1"
       id="path975"
       cx="165.27974"
       cy="-28.472406"
       r="27.637041" />
    <g
       id="g1049"
       transform="translate(0,0.97794594)">
      <flowRoot
         transform="matrix(0.48799415,0,0,0.48799415,138.27412,-23.118391)"
         style="font-style:normal;font-weight:normal;font-size:40px;line-height:0%;font-family:sans-serif;text-align:center;letter-spacing:0px;word-spacing:0px;text-anchor:middle;fill:#7375d8;fill-opacity:1;stroke:none;stroke-width:1px;stroke-linecap:butt;stroke-linejoin:miter;stroke-opacity:1;"
         id="flowRoot977"
         xml:space="preserve"><flowRegion
           id="flowRegion979"
           style="fill:#7375d8;fill-opacity:1;"><rect
             y="-21.202477"
             x="64.649765"
             height="89.769447"
             width="307.71375"
             id="rect981"
             style="fill:#7375d8;fill-opacity:1;" /></flowRegion><flowPara
           style="font-style:normal;font-variant:normal;font-weight:bold;font-stretch:normal;font-size:85.33333588px;font-family:sans-serif;-inkscape-font-specification:'sans-serif Bold';fill:#005c94;stroke:none;fill-opacity:1"
           id="flowPara983">DOT</flowPara></flowRoot>      <flowRoot
         transform="matrix(0.62402503,0,0,0.62402503,39.681814,1.1455359)"
         style="font-style:normal;font-weight:normal;font-size:40px;line-height:0%;font-family:sans-serif;text-align:center;letter-spacing:0px;word-spacing:0px;text-anchor:middle;fill:#000000;fill-opacity:1;stroke:none;stroke-width:1px;stroke-linecap:butt;stroke-linejoin:miter;stroke-opacity:1"
         id="flowRoot977-9"
         xml:space="preserve"><flowRegion
           id="flowRegion979-7"><rect
             y="-21.202477"
             x="64.649765"
             height="68.95723"
             width="533.36206"
             id="rect981-0" /></flowRegion><flowPara
           style="font-style:normal;font-variant:normal;font-weight:bold;font-stretch:normal;font-size:28.91655922px;font-family:sans-serif;-inkscape-font-specification:'sans-serif Bold';fill:#0e232e;stroke:none"
           id="flowPara983-3">COUNTER</flowPara></flowRoot>    </g>
    <g
       id="g1356"
       transform="matrix(0.02645833,0,0,0.02645833,239.76125,-160.0309)"
       style="fill:#005c94">
      <g
         id="g2342"
         transform="translate(2373.8588,-747.51297)"
         style="fill:#005c94">
        <g
           style="fill:#005c94;stroke:none"
           id="layer102">
          <rect
             style="fill:#005c94;fill-opacity:1;stroke:none;stroke-width:3.7795279;stroke-miterlimit:4;stroke-dasharray:none;stroke-dashoffset:1.70834637;stroke-opacity:1"
             id="rect2618"
             width="3666.854"
             height="3171.8794"
             x="-5500.7739"
             y="469.09183"
             ry="419.17004"
             mask="url(#mask2674)"
             transform="matrix(0.69888516,0,0,0.69888516,-2458.5411,4220.9596)"
             clip-path="url(#clipPath2965)" />
        </g>
      </g>
    </g>
  </g>
</svg>
